<?xml version="1.0" encoding="utf-8"?>
<!-- Generator: Adobe Illustrator 16.0.0, SVG Export Plug-In . SVG Version: 6.00 Build 0)  -->
<!DOCTYPE svg PUBLIC "-//W3C//DTD SVG 1.1//EN" "http://www.w3.org/Graphics/SVG/1.1/DTD/svg11.dtd">
<svg version="1.1" id="Layer_1" xmlns="http://www.w3.org/2000/svg" xmlns:xlink="http://www.w3.org/1999/xlink" x="0px" y="0px"
	 width="500px" height="500px" viewBox="0 0 500 500" enable-background="new 0 0 500 500" xml:space="preserve">
<path fill="#FFFFFF" stroke="#000000" stroke-width="10" stroke-miterlimit="10" d="M28.695,154.492c0,0,22.881-53.39,83.051-57.627
	c60.17-4.237,138.982-0.848,173.729,5.932c34.746,6.78,89.83,38.136,94.915,95.763c5.085,57.627-40.677,94.915-77.118,116.102
	c-36.439,21.188-105.933,12.713-140.676,13.561c-34.745,0.846-55.085,42.371-55.085,42.371s-16.102,14.406-54.237,0
	c-38.135-14.406,19.492-62.711,19.492-62.711s-35.593-26.271-44.068-50.001C20.221,234.153,10.898,196.017,28.695,154.492z"/>
<path fill="#FFFFFF" stroke="#000000" stroke-width="10" stroke-miterlimit="10" d="M394.017,204.949
	c0,0-12.713-44.916,11.864-39.831c37.289,29.661,70.34,46.951,72.882,87.882c2.542,40.932,9.321,42.626-33.896,97.711
	c-7.627,8.475-17.797,14.499-4.237,29.283c13.561,14.783,18.646,7.156,11.02,31.731c-7.63,24.576-44.067,9.322-50.85,5.935
	c-6.782-3.389-22.882-16.949-27.119-16.949c-4.235,0-49.151,15.254-83.896,11.017c-34.745-4.235-77.118-16.948-93.22-27.118
	c-14.407-14.405-22.034-44.914-22.034-44.914s111.864,6.779,149.152-16.948s55.019-44.067,63.104-58.476
	C394.866,249.863,396.975,221.015,394.017,204.949z"/>
</svg>
