<?xml version="1.0" encoding="utf-8"?>
<!-- Generator: Adobe Illustrator 16.0.0, SVG Export Plug-In . SVG Version: 6.00 Build 0)  -->
<!DOCTYPE svg PUBLIC "-//W3C//DTD SVG 1.1//EN" "http://www.w3.org/Graphics/SVG/1.1/DTD/svg11.dtd">
<svg version="1.1" id="Layer_1" xmlns="http://www.w3.org/2000/svg" xmlns:xlink="http://www.w3.org/1999/xlink" x="0px" y="0px"
	 width="500px" height="500px" viewBox="0 0 500 500" enable-background="new 0 0 500 500" xml:space="preserve">
<path fill="#FFFFFF" stroke="#000000" stroke-width="10" stroke-miterlimit="10" d="M40.602,289.199l202.694-168.625
	c0,0,7.521-8.465,18.46,0.01s196.881,168.648,196.881,168.648s6.722,3.393,11.771,0.002c5.048-3.391,24.15-27.116,24.15-27.116
	s1.963-13.61-7.333-20.339c-20.975-15.185-58.905-50-58.905-50L425.795,65.47c0,0,0-5.97-5.892-5.97c-5.891,0-66.897,0-66.897,0
	s-9.677-0.771-6.312,11.093c1.098,17.039-1.681,50-1.681,50l-68.164-53.39c0,0-22.719-21.187-52.171,0.847
	C195.227,90.084,18.514,235.848,18.514,235.848s-16.83,12.712-5.89,28.813C23.563,280.762,35.027,293.838,40.602,289.199z"/>
<polygon fill="#FFFFFF" stroke="#000000" stroke-width="10" stroke-miterlimit="10" points="74.5,281.025 250.119,133.437 
	425.5,280.764 425.5,433 415.136,445.5 286,445.5 285.475,335.5 215,335.5 213.441,445.5 85,445.5 74.5,432.458 "/>
</svg>
