<?xml version="1.0" encoding="utf-8"?>
<!-- Generator: Adobe Illustrator 19.0.0, SVG Export Plug-In . SVG Version: 6.00 Build 0)  -->
<svg version="1.1" id="Layer_1" xmlns="http://www.w3.org/2000/svg" xmlns:xlink="http://www.w3.org/1999/xlink" x="0px" y="0px"
	 viewBox="0 0 600 300" style="enable-background:new 0 0 600 300;" xml:space="preserve">
<style type="text/css">
	.st0{fill:#3A3A3A;}
	.st1{fill:#F1F1F2;stroke:#404041;stroke-width:18;stroke-miterlimit:10;}
	.st2{fill:#F1F1F2;}
	.st3{fill:none;stroke:#707071;stroke-width:18;stroke-miterlimit:10;}
	.st4{fill:#F1F1F2;stroke:#3A3A3A;stroke-width:27;stroke-miterlimit:10;}
	.st5{fill:#F1F1F2;stroke:#3A3A3A;stroke-width:21;stroke-miterlimit:10;}
	.st6{fill:#F1F1F2;stroke:#F1F1F2;stroke-width:3;stroke-miterlimit:10;}
</style>
<g id="XMLID_2_">
	<path id="XMLID_7_" class="st0" d="M10.7,86V55c20.8-0.7,38.1-3.7,51.9-9.1l-2,33.3l-1.8,38.6c8.9-15.2,14.8-26.8,17.8-34.7
		c3.1-8.3,5.8-19.8,8.1-34.5c11.6,1,28,2.3,49.4,4c-1.7,8.2-4.2,27.9-7.4,59.2l-4.4,48.9c-1.3,14-2.8,24.1-4.4,30.2
		c-2,6.7-5.9,14.5-11.8,23.6c-6.3,9.8-15.4,21.1-27.1,34.1c-29.8-2.9-52.8-10.3-68.8-22.1L2,206c4.3-7.3,10.1-15.9,17.5-26
		c5.1,6.6,12.5,11.1,22.3,13.6c9.8,2.6,21.6,5,35.4,7.2c-1.9-23.1-2.8-41.3-2.8-54.5c0-8.2,0.3-17.8,0.9-29l-32.1,43.5
		c-3.5,4.6-5.6,9.1-6.4,13.4c-7.6-1-14.7-3.1-21.4-6.3c-0.9-7.7-1.6-15.7-2.1-24.2c-0.6-6.3-1.1-15.7-1.6-28.2
		C11.1,105,10.8,95.2,10.7,86z"/>
	<path id="XMLID_5_" class="st0" d="M159.3,53.8c11.2-0.8,28.3-4.8,51.3-12c-1.2,3.3-2.6,10.1-4,20.5c-0.9,6.2-2,13.1-3.4,20.9
		c-1.4,8.1-2.1,15.2-2.1,21.5c0,6.6,1.2,12.9,3.6,18.8c2.5,6.7,5.8,14.2,9.9,22.7c8.8-7.4,15.1-13.7,18.9-19
		c0.1-2.9,0.1-8.5,0.1-16.7c0-27.8-1.2-48.1-3.6-60.8c3.7,0.7,7.1,1,10.2,1c11.8,0,25.5-1.3,41.1-3.9c-0.9,15.3-1.3,34.1-1.3,56.2
		c0,12.9,0.4,34.5,1.3,64.9c-5.4,1-16,3.1-31.7,6.4l-19.6,4c1.7-9.5,2.6-18.1,2.6-26c-7.3,3.8-19.4,11.7-36.4,23.8
		c-13.3-3.6-21.6-6.5-25.1-8.7c-3.7-2.1-7.2-6.5-10.7-13.1c-3.4-6.8-5.1-16.4-5.1-29C155.3,100.7,156.7,76.9,159.3,53.8z"/>
	<path id="XMLID_3_" class="st0" d="M347.1,44.3c0.6,0,8.7,0.6,24.4,1.8c16.9,1.1,33.3,1.6,49.3,1.6c-0.1,0.4-1.1,4.1-3.1,11.2
		c-3.3,11.6-5,20.1-5.1,25.7C401.5,80,380,76.3,348,73.4c4.5,14.1,19.4,21.2,44.6,21.2c13.3,0,22.4,0.6,27.3,1.8
		c4.7,1.2,8.5,3.7,11.2,7.5c2.7,3.7,4,9,4,16c0,7.5-1.5,14.8-4.5,22c-3.2,7.2-7,13-11.2,17.3c-4.4,4.5-12,8.5-23,12.1
		c-10.9,3.6-22.4,5.4-34.4,5.4c-20.8,0-38.2-4.5-52.1-13.4c1.7-6,4.3-13.3,7.8-22c14.8,6.8,31.5,10.2,50.1,10.2
		c9.8,0,18.9-2.9,27.3-8.7c-5.8-4.3-12.1-6.4-18.9-6.4c-1.4,0-3.1,0-5.1,0.1c-4.7,0.2-7.4,0.3-8.1,0.3c-18.7,0-32.9-2.9-42.6-8.8
		c-9.8-5.8-14.6-15.8-14.6-30.2c0-11.4,2.9-20.9,8.8-28.5C320.2,61.7,331.1,53.3,347.1,44.3z"/>
</g>
<path id="XMLID_87_" class="st1" d="M539.3,95.3"/>
<path id="XMLID_86_" class="st1" d="M511.8,120.3"/>
<path id="XMLID_85_" class="st1" d="M513.3,36.1"/>
<path id="XMLID_84_" class="st1" d="M512.8,67.2"/>
<path id="XMLID_83_" class="st1" d="M512.8,68.7"/>
<path id="XMLID_82_" class="st1" d="M512.8,145.1"/>
<path id="XMLID_81_" class="st1" d="M513.3,36.1"/>
<path id="XMLID_80_" class="st1" d="M492.4,113"/>
<path id="XMLID_79_" class="st1" d="M458,135.3"/>
<path id="XMLID_78_" class="st1" d="M531.3,113"/>
<path id="XMLID_77_" class="st1" d="M558,137.3"/>
<g id="XMLID_69_">
	<path id="XMLID_54_" class="st2" d="M576.2,33.5"/>
	<g id="XMLID_48_">
		<path id="XMLID_52_" class="st3" d="M576.2,33.5"/>
	</g>
</g>
<g id="XMLID_61_">
	<path id="XMLID_47_" class="st2" d="M526.9,151.6"/>
	<g id="XMLID_41_">
		<path id="XMLID_46_" class="st3" d="M526.9,151.6"/>
	</g>
</g>
<g id="XMLID_53_">
	<path id="XMLID_39_" class="st2" d="M618.1,153.8"/>
	<g id="XMLID_33_">
		<path id="XMLID_37_" class="st3" d="M618.1,153.8"/>
	</g>
</g>
<g id="XMLID_45_">
	<path id="XMLID_40_" class="st2" d="M513.6,154.7"/>
	<g id="XMLID_27_">
		<path id="XMLID_32_" class="st3" d="M513.6,154.7"/>
	</g>
</g>
<ellipse id="XMLID_38_" class="st4" cx="518.3" cy="109.2" rx="64.5" ry="59.1"/>
<ellipse id="XMLID_31_" class="st5" cx="518.3" cy="108.8" rx="30.8" ry="28"/>
<ellipse id="XMLID_24_" class="st6" cx="540.8" cy="88.8" rx="5.7" ry="5.1"/>
<ellipse id="XMLID_17_" class="st6" cx="502.8" cy="85" rx="5.7" ry="5.1"/>
<ellipse id="XMLID_12_" class="st6" cx="545" cy="123.2" rx="5.7" ry="5.1"/>
<ellipse id="XMLID_11_" class="st6" cx="488.4" cy="113.7" rx="5.7" ry="5.1"/>
<ellipse id="XMLID_10_" class="st6" cx="514.6" cy="137.5" rx="5.7" ry="5.1"/>
</svg>
