<?xml version="1.0" encoding="utf-8"?>
<!-- Generator: Adobe Illustrator 16.0.0, SVG Export Plug-In . SVG Version: 6.00 Build 0)  -->
<!DOCTYPE svg PUBLIC "-//W3C//DTD SVG 1.1//EN" "http://www.w3.org/Graphics/SVG/1.1/DTD/svg11.dtd">
<svg version="1.1" id="Layer_1" xmlns="http://www.w3.org/2000/svg" xmlns:xlink="http://www.w3.org/1999/xlink" x="0px" y="0px"
	 width="500px" height="500px" viewBox="0 0 500 500" enable-background="new 0 0 500 500" xml:space="preserve">
<g>
	<path fill="#FFFFFF" stroke="#000000" stroke-width="10" stroke-miterlimit="10" d="M477,411.271l-80.672-72.636l-0.001,0.003
		c18.919-32.609,29.825-70.932,29.825-111.937c0-118.783-91.483-215.077-204.332-215.077c-112.849,0-204.331,96.293-204.331,215.077
		s91.481,215.076,204.331,215.076c41.087,0,79.335-12.775,111.375-34.743l-0.001,0.001c0,0,14.99,11.861,59.06,53.387
		c32.873,39.755,67.121,24.337,73.513,20.938c0.643-0.852,4.909-5.054,21.403-20.092C504.119,422.543,477,411.271,477,411.271z
		 M227.542,361.271c-70.974,0-128.509-61.848-128.509-138.138C99.034,146.845,156.569,85,227.542,85
		c70.974,0,128.508,61.845,128.508,138.136C356.051,299.426,298.516,361.271,227.542,361.271z"/>
	<path fill="#FFFFFF" stroke="#000000" stroke-width="10" stroke-miterlimit="10" d="M466.83,480.763c0,0-0.37,0.229-1.063,0.601
		C465.288,481.996,466.83,480.763,466.83,480.763z"/>
</g>
</svg>
