<?xml version="1.0" encoding="utf-8"?>
<!-- Generator: Adobe Illustrator 16.0.0, SVG Export Plug-In . SVG Version: 6.00 Build 0)  -->
<!DOCTYPE svg PUBLIC "-//W3C//DTD SVG 1.1//EN" "http://www.w3.org/Graphics/SVG/1.1/DTD/svg11.dtd">
<svg version="1.1" id="Layer_1" xmlns="http://www.w3.org/2000/svg" xmlns:xlink="http://www.w3.org/1999/xlink" x="0px" y="0px"
	 width="500px" height="500px" viewBox="0 0 500 500" enable-background="new 0 0 500 500" xml:space="preserve">
<rect x="224" y="15" fill="#FFFFFF" stroke="#000000" stroke-width="10" stroke-miterlimit="10" width="42" height="468"/>
<path fill="#FFFFFF" stroke="#000000" stroke-width="10" stroke-miterlimit="10" d="M363.44,140.085l-68.646,6.779
	c0,0-12.712-68.646-79.661-35.593c-19.492,3.39-35.593,48.305,0,72.034c50.864,25.502,82.203,27.119,106.779,39.831
	c24.576,12.712,58.476,39.831,52.543,100c-5.933,60.168-29.261,86.438-89.858,111.017c-40.648,1.693-94.888,13.56-141.498-36.44
	c-16.949-11.018-29.661-72.033-29.661-72.033l71.187-8.476c0,0,16.102,69.491,87.288,56.78c65.255-41.525,20.34-77.118,10.17-87.289
	c-10.17-10.17-100.848-22.881-129.661-57.626c-28.813-34.745-42.373-86.44-11.864-141.525c30.509-55.085,146.609-50,180.508-24.576
	C354.967,88.392,360.051,116.356,363.44,140.085z"/>
</svg>
